#Comment line ignore any data following # character 
#Hierarchical Translation and Rotation (.htr) file 
[Header]	
#Header keywords are followed by a single value 
FileType HTR		#Single word string
DataType HTRS		#Translation followed by rotation and scale data
FileVersion 1		#integer
NumSegments 84		#integer
NumFrames 2		#integer
DataFrameRate 30		#integer, data frame rate in this file
EulerRotationOrder ZYX
CalibrationUnits mm
RotationUnits Degrees
GlobalAxisofGravity Y
BoneLengthAxis Y
ScaleFactor 1.00
[SegmentNames&Hierarchy]
#CHILD	PARENT
MASTER GLOBAL
root MASTER
chest root
L_mid_tent01 root
R_mid_tent01 root
spine01 root
Bip01_Neck chest
L_humerus chest
R_humerus chest
weapon_bone chest
Bip01_Head Bip01_Neck
eye_left_bone Bip01_Head
eye_right_bone Bip01_Head
L_forearm L_humerus
L_front_hand L_forearm
L_weapon_bone L_forearm
L_front_hand01_01 L_front_hand
L_front_hand02_01 L_front_hand
L_front_hand03_01 L_front_hand
L_front_hand01_02 L_front_hand01_01
L_front_hand02_02 L_front_hand02_01
L_front_hand03_02 L_front_hand03_01
R_forearm R_humerus
R_front_hand R_forearm
R_weapon_bone R_forearm
R_front_hand01_01 R_front_hand
R_front_hand02_01 R_front_hand
R_front_hand03_01 R_front_hand
R_front_hand01_02 R_front_hand01_01
R_front_hand02_02 R_front_hand02_01
R_front_hand03_02 R_front_hand03_01
null_rope01_connect L_mid_tent01
Rope1_Seg01 null_rope01_connect
Rope1_Seg02 Rope1_Seg01
Rope1_Seg03 Rope1_Seg02
Rope1_Seg04 Rope1_Seg03
Rope1_Seg05 Rope1_Seg04
Rope1_Seg06 Rope1_Seg05
Rope1_Seg07 Rope1_Seg06
Rope1_Seg09 Rope1_Seg07
L_mid_hand01 Rope1_Seg09
L_mid_hand02 Rope1_Seg09
L_mid_hand03 Rope1_Seg09
null_rope02_connect R_mid_tent01
Rope2_Seg01 null_rope02_connect
Rope2_Seg02 Rope2_Seg01
Rope2_Seg03 Rope2_Seg02
Rope2_Seg04 Rope2_Seg03
Rope2_Seg05 Rope2_Seg04
Rope2_Seg06 Rope2_Seg05
Rope2_Seg07 Rope2_Seg06
Rope2_Seg09 Rope2_Seg07
R_mid_hand01 Rope2_Seg09
R_mid_hand02 Rope2_Seg09
R_mid_hand03 Rope2_Seg09
spine02 spine01
spine03 spine02
pelvis spine03
null_rope03_connect pelvis
null_rope04_connect pelvis
Rope3_Seg01 null_rope03_connect
Rope3_Seg02 Rope3_Seg01
Rope3_Seg03 Rope3_Seg02
Rope3_Seg04 Rope3_Seg03
Rope3_Seg05 Rope3_Seg04
Rope3_Seg06 Rope3_Seg05
Rope3_Seg07 Rope3_Seg06
Rope3_Seg08 Rope3_Seg07
Rope3_Seg09 Rope3_Seg08
R_rear_hand01 Rope3_Seg09
R_rear_hand02 Rope3_Seg09
R_rear_hand03 Rope3_Seg09
Rope4_Seg01 null_rope04_connect
Rope4_Seg02 Rope4_Seg01
Rope4_Seg03 Rope4_Seg02
Rope4_Seg04 Rope4_Seg03
Rope4_Seg05 Rope4_Seg04
Rope4_Seg06 Rope4_Seg05
Rope4_Seg07 Rope4_Seg06
Rope4_Seg08 Rope4_Seg07
Rope4_Seg09 Rope4_Seg08
L_rear_hand01 Rope4_Seg09
L_rear_hand02 Rope4_Seg09
L_rear_hand03 Rope4_Seg09
[BasePosition]
#SegmentName Tx, Ty, Tz, Rx, Ry, Rz, BoneLength
MASTER 0.000000 0.000000 0.000000 -90.000000 0.000000 0.000000 10.000000 
root 0.000000 0.000000 0.000000 0.000000 0.000000 0.000000 10.000000 
chest 0.000000 0.000000 0.000000 0.000000 0.000000 0.000000 10.000000 
L_mid_tent01 0.000000 0.000000 0.000000 0.000000 0.000000 0.000000 10.000000 
R_mid_tent01 0.000000 0.000000 0.000000 0.000000 0.000000 0.000000 10.000000 
spine01 0.000000 0.000000 0.000000 0.000000 0.000000 0.000000 10.000000 
Bip01_Neck 0.000000 0.000000 0.000000 0.000000 0.000000 0.000000 10.000000 
L_humerus 0.000000 0.000000 0.000000 0.000000 0.000000 0.000000 10.000000 
R_humerus 0.000000 0.000000 0.000000 0.000000 0.000000 0.000000 10.000000 
weapon_bone 0.000000 0.000000 0.000000 0.000000 0.000000 0.000000 10.000000 
Bip01_Head 0.000000 0.000000 0.000000 0.000000 0.000000 0.000000 10.000000 
eye_left_bone 0.000000 0.000000 0.000000 0.000000 0.000000 0.000000 10.000000 
eye_right_bone 0.000000 0.000000 0.000000 0.000000 0.000000 0.000000 10.000000 
L_forearm 0.000000 0.000000 0.000000 0.000000 0.000000 0.000000 10.000000 
L_front_hand 0.000000 0.000000 0.000000 0.000000 0.000000 0.000000 10.000000 
L_weapon_bone 0.000000 0.000000 0.000000 0.000000 0.000000 0.000000 10.000000 
L_front_hand01_01 0.000000 0.000000 0.000000 0.000000 0.000000 0.000000 10.000000 
L_front_hand02_01 0.000000 0.000000 0.000000 0.000000 0.000000 0.000000 10.000000 
L_front_hand03_01 0.000000 0.000000 0.000000 0.000000 0.000000 0.000000 10.000000 
L_front_hand01_02 0.000000 0.000000 0.000000 0.000000 0.000000 0.000000 10.000000 
L_front_hand02_02 0.000000 0.000000 0.000000 0.000000 0.000000 0.000000 10.000000 
L_front_hand03_02 0.000000 0.000000 0.000000 0.000000 0.000000 0.000000 10.000000 
R_forearm 0.000000 0.000000 0.000000 0.000000 0.000000 0.000000 10.000000 
R_front_hand 0.000000 0.000000 0.000000 0.000000 0.000000 0.000000 10.000000 
R_weapon_bone 0.000000 0.000000 0.000000 0.000000 0.000000 0.000000 10.000000 
R_front_hand01_01 0.000000 0.000000 0.000000 0.000000 0.000000 0.000000 10.000000 
R_front_hand02_01 0.000000 0.000000 0.000000 0.000000 0.000000 0.000000 10.000000 
R_front_hand03_01 0.000000 0.000000 0.000000 0.000000 0.000000 0.000000 10.000000 
R_front_hand01_02 0.000000 0.000000 0.000000 0.000000 0.000000 0.000000 10.000000 
R_front_hand02_02 0.000000 0.000000 0.000000 0.000000 0.000000 0.000000 10.000000 
R_front_hand03_02 0.000000 0.000000 0.000000 0.000000 0.000000 0.000000 10.000000 
null_rope01_connect 0.000000 0.000000 0.000000 0.000000 0.000000 0.000000 10.000000 
Rope1_Seg01 0.000000 0.000000 0.000000 0.000000 0.000000 0.000000 10.000000 
Rope1_Seg02 0.000000 0.000000 0.000000 0.000000 0.000000 0.000000 10.000000 
Rope1_Seg03 0.000000 0.000000 0.000000 0.000000 0.000000 0.000000 10.000000 
Rope1_Seg04 0.000000 0.000000 0.000000 0.000000 0.000000 0.000000 10.000000 
Rope1_Seg05 0.000000 0.000000 0.000000 0.000000 0.000000 0.000000 10.000000 
Rope1_Seg06 0.000000 0.000000 0.000000 0.000000 0.000000 0.000000 10.000000 
Rope1_Seg07 0.000000 0.000000 0.000000 0.000000 0.000000 0.000000 10.000000 
Rope1_Seg09 0.000000 0.000000 0.000000 0.000000 0.000000 0.000000 10.000000 
L_mid_hand01 0.000000 0.000000 0.000000 0.000000 0.000000 0.000000 10.000000 
L_mid_hand02 0.000000 0.000000 0.000000 0.000000 0.000000 0.000000 10.000000 
L_mid_hand03 0.000000 0.000000 0.000000 0.000000 0.000000 0.000000 10.000000 
null_rope02_connect 0.000000 0.000000 0.000000 0.000000 0.000000 0.000000 10.000000 
Rope2_Seg01 0.000000 0.000000 0.000000 0.000000 0.000000 0.000000 10.000000 
Rope2_Seg02 0.000000 0.000000 0.000000 0.000000 0.000000 0.000000 10.000000 
Rope2_Seg03 0.000000 0.000000 0.000000 0.000000 0.000000 0.000000 10.000000 
Rope2_Seg04 0.000000 0.000000 0.000000 0.000000 0.000000 0.000000 10.000000 
Rope2_Seg05 0.000000 0.000000 0.000000 0.000000 0.000000 0.000000 10.000000 
Rope2_Seg06 0.000000 0.000000 0.000000 0.000000 0.000000 0.000000 10.000000 
Rope2_Seg07 0.000000 0.000000 0.000000 0.000000 0.000000 0.000000 10.000000 
Rope2_Seg09 0.000000 0.000000 0.000000 0.000000 0.000000 0.000000 10.000000 
R_mid_hand01 0.000000 0.000000 0.000000 0.000000 0.000000 0.000000 10.000000 
R_mid_hand02 0.000000 0.000000 0.000000 0.000000 0.000000 0.000000 10.000000 
R_mid_hand03 0.000000 0.000000 0.000000 0.000000 0.000000 0.000000 10.000000 
spine02 0.000000 0.000000 0.000000 0.000000 0.000000 0.000000 10.000000 
spine03 0.000000 0.000000 0.000000 0.000000 0.000000 0.000000 10.000000 
pelvis 0.000000 0.000000 0.000000 0.000000 0.000000 0.000000 10.000000 
null_rope03_connect 0.000000 0.000000 0.000000 0.000000 0.000000 0.000000 10.000000 
null_rope04_connect 0.000000 0.000000 0.000000 0.000000 0.000000 0.000000 10.000000 
Rope3_Seg01 0.000000 0.000000 0.000000 0.000000 0.000000 0.000000 10.000000 
Rope3_Seg02 0.000000 0.000000 0.000000 0.000000 0.000000 0.000000 10.000000 
Rope3_Seg03 0.000000 0.000000 0.000000 0.000000 0.000000 0.000000 10.000000 
Rope3_Seg04 0.000000 0.000000 0.000000 0.000000 0.000000 0.000000 10.000000 
Rope3_Seg05 0.000000 0.000000 0.000000 0.000000 0.000000 0.000000 10.000000 
Rope3_Seg06 0.000000 0.000000 0.000000 0.000000 0.000000 0.000000 10.000000 
Rope3_Seg07 0.000000 0.000000 0.000000 0.000000 0.000000 0.000000 10.000000 
Rope3_Seg08 0.000000 0.000000 0.000000 0.000000 0.000000 0.000000 10.000000 
Rope3_Seg09 0.000000 0.000000 0.000000 0.000000 0.000000 0.000000 10.000000 
R_rear_hand01 0.000000 0.000000 0.000000 0.000000 0.000000 0.000000 10.000000 
R_rear_hand02 0.000000 0.000000 0.000000 0.000000 0.000000 0.000000 10.000000 
R_rear_hand03 0.000000 0.000000 0.000000 0.000000 0.000000 0.000000 10.000000 
Rope4_Seg01 0.000000 0.000000 0.000000 0.000000 0.000000 0.000000 10.000000 
Rope4_Seg02 0.000000 0.000000 0.000000 0.000000 0.000000 0.000000 10.000000 
Rope4_Seg03 0.000000 0.000000 0.000000 0.000000 0.000000 0.000000 10.000000 
Rope4_Seg04 0.000000 0.000000 0.000000 0.000000 0.000000 0.000000 10.000000 
Rope4_Seg05 0.000000 0.000000 0.000000 0.000000 0.000000 0.000000 10.000000 
Rope4_Seg06 0.000000 0.000000 0.000000 0.000000 0.000000 0.000000 10.000000 
Rope4_Seg07 0.000000 0.000000 0.000000 0.000000 0.000000 0.000000 10.000000 
Rope4_Seg08 0.000000 0.000000 0.000000 0.000000 0.000000 0.000000 10.000000 
Rope4_Seg09 0.000000 0.000000 0.000000 0.000000 0.000000 0.000000 10.000000 
L_rear_hand01 0.000000 0.000000 0.000000 0.000000 0.000000 0.000000 10.000000 
L_rear_hand02 0.000000 0.000000 0.000000 0.000000 0.000000 0.000000 10.000000 
L_rear_hand03 0.000000 0.000000 0.000000 0.000000 0.000000 0.000000 10.000000 
#Beginning of Data. Separated by tabs
#Fr	Tx	Ty	Tz	Rx	Ry	Rz	SF
[MASTER]
20 0.000000 0.000000 0.000000 0.000000 -0.002347 -90.000000 0.000000
21 0.000000 0.000000 0.000000 0.000000 -0.002347 -90.000000 0.000000
[root]
20 -14.348886 -41.539490 923.740601 -94.425140 -10.448587 179.361038 924.785461
21 -14.348886 -34.773922 911.423218 -94.120041 -10.452859 179.361481 912.199219
[chest]
20 -84.512650 -34.090519 0.000000 -11.005735 3.278107 178.086823 91.129311
21 -84.512650 -34.090519 0.000000 -13.692071 3.297978 178.142136 91.129311
[L_mid_tent01]
20 27.299511 22.177458 -249.918259 -63.657536 18.686338 33.262241 252.381134
21 27.299511 22.177458 -249.918259 -63.657536 18.686338 33.262241 252.381134
[R_mid_tent01]
20 23.228794 24.509907 226.238495 -131.259216 -15.836094 39.582561 228.744751
21 23.228794 24.509907 226.238495 -131.259216 -15.836094 39.582561 228.744751
[spine01]
20 -0.361383 -0.195265 0.000000 0.001845 0.001451 13.654368 0.410763
21 -0.361383 -0.195265 0.000000 0.001845 0.001451 13.654368 0.410763
[Bip01_Neck]
20 165.484543 71.581718 0.000119 176.643677 -1.657967 43.431911 180.302734
21 165.484543 71.581718 0.000119 176.643677 -1.657967 43.431911 180.302734
[L_humerus]
20 -13.983130 -135.272980 -120.471481 172.515259 35.626438 -116.976051 181.680161
21 -13.983130 -135.272980 -120.471481 169.672318 42.158051 -119.917183 181.680161
[R_humerus]
20 -13.983309 -135.273102 125.287651 -162.701767 -26.878920 -136.804672 184.909012
21 -13.983309 -135.273102 125.287651 -159.036987 -32.215939 -140.668015 184.909012
[weapon_bone]
20 235.964890 -300.705902 0.000000 0.000000 -89.951546 -128.212341 382.234833
21 235.964890 -300.705902 0.000000 0.000000 -89.951546 -128.212341 382.234833
[Bip01_Head]
20 128.171936 128.412292 8.333417 1.938589 3.724703 -19.795940 181.623810
21 128.171936 128.412292 8.333417 1.938589 3.724703 -19.795940 181.623810
[eye_left_bone]
20 -24.626970 125.451866 -64.772606 0.000000 -90.000000 -99.840431 143.318359
21 -24.626970 125.451866 -64.772606 0.000000 -90.000000 -99.840431 143.318359
[eye_right_bone]
20 -24.626970 125.451866 64.327362 0.000000 -89.965736 80.156380 143.117676
21 -24.626970 125.451866 64.327362 0.000000 -89.965736 80.156380 143.117676
[L_forearm]
20 322.776093 0.000000 -0.000119 0.000345 -0.002322 -106.903854 322.776093
21 322.776093 0.000000 -0.000119 0.000343 -0.002322 -106.796059 322.776093
[L_front_hand]
20 241.149185 -0.042021 -3.300071 -44.148594 -1.837146 -27.424177 241.171753
21 241.149185 -0.042021 -3.300071 143.572845 -1.836235 -27.421406 241.171753
[L_weapon_bone]
20 156.183838 0.000000 0.000000 0.000014 0.000007 0.000001 156.183838
21 156.183838 0.000000 0.000000 0.000014 0.000007 0.000001 156.183838
[L_front_hand01_01]
20 86.095154 20.947098 -0.655860 -0.366594 -0.477154 75.385574 88.609184
21 86.095154 20.947098 -0.655860 -0.366594 -0.477154 75.385574 88.609184
[L_front_hand02_01]
20 86.935165 -11.437475 24.513514 154.399796 -59.883835 -61.369587 91.046425
21 86.935165 -11.437475 24.513514 154.399796 -59.883835 -61.369587 91.046425
[L_front_hand03_01]
20 86.637497 -14.123976 -20.424902 -153.913849 58.118122 -62.702866 90.126129
21 86.637497 -14.123976 -20.424902 -153.913849 58.118122 -62.702866 90.126129
[L_front_hand01_02]
20 71.020905 -0.000179 0.000030 0.000334 -0.002323 -106.379684 71.020905
21 71.020905 -0.000179 0.000030 0.000334 -0.002323 -106.379684 71.020905
[L_front_hand02_02]
20 71.020927 -0.000119 0.000060 0.000334 -0.002323 -106.379684 71.020927
21 71.020927 -0.000119 0.000060 0.000334 -0.002323 -106.379684 71.020927
[L_front_hand03_02]
20 71.020905 -0.000060 0.000060 0.000334 -0.002323 -106.379684 71.020905
21 71.020905 -0.000060 0.000060 0.000334 -0.002323 -106.379684 71.020905
[R_forearm]
20 322.776428 -0.000060 0.000030 0.208869 0.048683 -104.392776 322.776428
21 322.776428 -0.000060 0.000030 0.208918 0.048472 -104.276970 322.776428
[R_front_hand]
20 238.847015 -0.006795 2.210259 114.837120 -10.642957 -26.314322 238.857239
21 238.847015 -0.006795 2.210259 -178.204758 -10.647345 -26.313452 238.857239
[R_weapon_bone]
20 155.664093 0.002503 -0.000030 0.003487 0.001180 -90.988930 155.664078
21 155.664093 0.002503 -0.000030 0.003487 0.001180 -90.988930 155.664078
[R_front_hand01_01]
20 87.624611 14.231146 22.918642 -154.633499 -59.950619 61.746044 91.683487
21 87.624611 14.231146 22.918642 -154.633499 -59.950619 61.746044 91.683487
[R_front_hand02_01]
20 89.356956 14.367283 -19.491137 154.602661 58.302849 63.744389 92.579636
21 89.356956 14.367283 -19.491137 154.602661 58.302849 63.744389 92.579636
[R_front_hand03_01]
20 87.286232 -22.307278 -0.143439 0.162155 -0.423168 -75.767921 90.091743
21 87.286232 -22.307278 -0.143439 0.162155 -0.423168 -75.767921 90.091743
[R_front_hand01_02]
20 71.020905 0.000060 0.000119 0.002323 -0.000334 106.381706 71.020905
21 71.020905 0.000060 0.000119 0.002323 -0.000334 106.381714 71.020905
[R_front_hand02_02]
20 71.020844 -0.000030 -0.000119 0.002323 -0.000334 106.381706 71.020836
21 71.020844 -0.000030 -0.000119 0.002323 -0.000334 106.381714 71.020836
[R_front_hand03_02]
20 71.020905 0.000000 0.000030 0.002323 -0.000334 106.381706 71.020905
21 71.020905 0.000000 0.000030 0.002323 -0.000334 106.381714 71.020905
[null_rope01_connect]
20 328.732483 0.000000 -0.000238 -167.193237 20.949518 66.714508 328.732483
21 328.732483 0.000000 -0.000238 -167.147461 21.234816 66.846260 328.732483
[Rope1_Seg01]
20 0.000000 0.000000 0.000000 99.500450 15.751195 -70.276672 0.000000
21 0.000000 0.000000 0.000000 101.093864 13.227715 -69.259308 0.000000
[Rope1_Seg02]
20 139.999863 -0.000179 0.000000 -0.900088 0.053258 -2.877542 139.999863
21 139.999863 -0.000179 0.000000 -1.083502 -0.322754 -2.913698 139.999863
[Rope1_Seg03]
20 139.999924 0.000060 -0.000060 -1.237052 0.154962 -4.596062 139.999924
21 139.999924 0.000060 -0.000060 -1.505290 -0.431233 -4.687879 139.999924
[Rope1_Seg04]
20 139.999924 -0.000060 -0.000119 -0.870741 2.194917 -5.973572 139.999924
21 139.999924 -0.000060 -0.000119 -1.250094 0.573128 -5.714680 139.999924
[Rope1_Seg05]
20 139.999832 0.000119 -0.000060 -1.226529 -2.937560 -28.767252 139.999832
21 139.999832 0.000119 -0.000060 -1.922062 -3.838275 -30.833376 139.999832
[Rope1_Seg06]
20 139.999954 0.000119 -0.000060 3.038836 -3.455918 -17.260284 139.999954
21 139.999954 0.000119 -0.000060 2.826567 -2.385612 -18.715307 139.999954
[Rope1_Seg07]
20 139.999985 0.000060 0.000000 1.808966 -1.302250 -6.854235 139.999985
21 139.999985 0.000060 0.000000 1.919480 -1.085381 -7.292913 139.999985
[Rope1_Seg09]
20 121.602913 0.000119 -0.000089 -89.793175 -1.359789 0.847147 121.602913
21 121.602913 0.000119 -0.000089 -89.793175 -1.359789 0.847147 121.602913
[L_mid_hand01]
20 103.859421 1.038730 8.195221 109.056206 -40.604691 -13.201402 104.187431
21 103.859421 1.038730 8.195221 109.056198 -40.604706 -13.201404 104.187431
[L_mid_hand02]
20 105.572853 -4.139662 -10.864139 -146.713593 31.476528 -37.902313 106.211075
21 105.572853 -4.139662 -10.864139 -146.713593 31.476528 -37.902313 106.211075
[L_mid_hand03]
20 104.641464 17.579376 -3.913581 -14.267233 12.322316 43.898396 106.179977
21 104.641464 17.579376 -3.913581 -14.267233 12.322316 43.898396 106.179977
[null_rope02_connect]
20 328.732849 0.000179 -0.000119 -161.987396 -43.127239 107.156555 328.732849
21 328.732849 0.000179 -0.000119 -162.132996 -42.858494 107.361855 328.732849
[Rope2_Seg01]
20 -0.000038 -0.000114 0.000098 -44.305756 6.070731 -114.049698 0.000155
21 -0.000038 -0.000114 0.000098 -45.090073 3.096295 -113.976006 0.000155
[Rope2_Seg02]
20 139.999741 -0.000060 -0.000119 2.160074 5.061800 5.981995 139.999756
21 139.999741 -0.000060 -0.000119 2.475213 5.305529 6.393876 139.999756
[Rope2_Seg03]
20 140.000107 0.000030 0.000000 2.376832 6.765654 7.496064 140.000107
21 140.000107 0.000030 0.000000 2.778870 7.258724 8.130546 140.000107
[Rope2_Seg04]
20 139.999802 0.000000 -0.000060 2.110299 8.902679 8.414122 139.999802
21 139.999802 0.000000 -0.000060 2.530311 9.709124 9.346411 139.999802
[Rope2_Seg05]
20 139.999985 -0.000060 0.000119 1.087458 8.405434 8.266334 139.999985
21 139.999985 -0.000060 0.000119 1.252733 8.967669 8.830083 139.999985
[Rope2_Seg06]
20 139.999893 -0.000030 -0.000119 0.808749 10.591739 14.088707 139.999893
21 139.999893 -0.000030 -0.000119 0.831287 11.300658 14.234560 139.999893
[Rope2_Seg07]
20 139.999893 0.000060 -0.000060 0.066572 14.956325 21.241390 139.999893
21 139.999893 0.000060 -0.000060 -0.265952 15.577548 20.704264 139.999893
[Rope2_Seg09]
20 121.338966 0.000089 -0.000060 33.793236 -1.359788 -0.847141 121.338966
21 121.338966 0.000089 -0.000060 33.793236 -1.359788 -0.847141 121.338966
[R_mid_hand01]
20 104.680779 11.144459 -10.335981 -37.204079 31.906813 37.576260 105.778534
21 104.680779 11.144459 -10.335981 -37.204079 31.906813 37.576260 105.778534
[R_mid_hand02]
20 104.070427 2.443552 8.231699 70.367462 -42.427391 14.067809 104.424065
21 104.070427 2.443552 8.231699 70.367462 -42.427391 14.067809 104.424065
[R_mid_hand03]
20 106.028137 -11.221827 -5.996406 -169.893616 12.226661 -47.211018 106.788818
21 106.028137 -11.221827 -5.996406 -169.893616 12.226661 -47.211018 106.788818
[spine02]
20 129.756927 0.001550 0.000119 -1.023899 -3.926965 6.770993 129.756927
21 129.756927 0.001550 0.000119 -1.023899 -3.926965 6.770993 129.756927
[spine03]
20 78.613846 0.087372 -4.898873 1.040680 4.146419 4.212375 78.766380
21 78.613846 0.087372 -4.898873 1.040681 4.146420 4.212376 78.766380
[pelvis]
20 169.435242 0.051022 0.000000 0.019518 -0.190233 -10.721436 169.435257
21 169.435242 0.051022 0.000000 0.019518 -0.190233 -10.721436 169.435257
[null_rope03_connect]
20 -1.257226 -2.466202 137.391083 162.324799 85.113724 68.918304 137.418976
21 -1.257226 -2.466202 137.391083 161.848526 85.422394 68.439568 137.418976
[null_rope04_connect]
20 -1.259640 -2.480268 -137.844437 162.324799 85.113724 68.918304 137.872513
21 -1.259640 -2.480268 -137.844437 161.848526 85.422394 68.439568 137.872513
[Rope3_Seg01]
20 0.000000 0.000000 0.000000 -129.219299 4.733850 115.734238 0.000000
21 0.000000 0.000000 0.000000 -130.019241 0.927920 115.426659 0.000000
[Rope3_Seg02]
20 139.999924 -0.000119 0.000060 1.901885 -10.123149 7.013377 139.999924
21 139.999924 -0.000119 0.000060 2.211848 -11.092965 7.590616 139.999924
[Rope3_Seg03]
20 139.999924 -0.000119 0.000119 1.615518 -8.670085 6.028040 139.999924
21 139.999924 -0.000119 0.000119 1.865823 -9.385876 6.592106 139.999924
[Rope3_Seg04]
20 139.999924 0.000119 0.000000 1.023736 -5.423839 2.889696 139.999924
21 139.999924 0.000119 0.000000 1.192596 -5.887677 3.625628 139.999924
[Rope3_Seg05]
20 139.999924 -0.000238 0.000060 1.448908 -8.741786 9.963798 139.999924
21 139.999924 -0.000238 0.000060 1.543291 -9.487757 10.704389 139.999924
[Rope3_Seg06]
20 139.999893 -0.000119 -0.000060 -1.092390 -14.202638 20.834642 139.999893
21 139.999893 -0.000119 -0.000060 -1.151197 -14.901132 21.144444 139.999893
[Rope3_Seg07]
20 139.999771 0.000060 -0.000119 -2.305329 -10.063987 14.748859 139.999771
21 139.999771 0.000060 -0.000119 -2.099788 -10.033840 14.233921 139.999771
[Rope3_Seg08]
20 139.999985 -0.000060 0.000000 -1.396778 -5.597748 7.681764 139.999985
21 139.999985 -0.000060 0.000000 -1.230783 -5.531327 7.424469 139.999985
[Rope3_Seg09]
20 90.185997 -0.000179 -0.000060 89.793228 -1.359877 -0.847183 90.185997
21 90.185997 -0.000179 -0.000060 89.793228 -1.359877 -0.847183 90.185997
[R_rear_hand01]
20 103.366196 -6.073594 -10.757982 -164.755127 19.627697 -40.352161 104.101845
21 103.366196 -6.073594 -10.757982 -164.755127 19.627697 -40.352161 104.101845
[R_rear_hand02]
20 100.509819 12.039542 -7.992327 -30.792652 24.782448 38.141541 101.543350
21 100.509819 12.039542 -7.992327 -30.792652 24.782448 38.141541 101.543350
[R_rear_hand03]
20 101.539970 5.215704 5.435467 82.448349 -41.048256 8.840378 101.819031
21 101.539970 5.215704 5.435467 82.448349 -41.048256 8.840378 101.819031
[Rope4_Seg01]
20 0.000010 0.000038 -0.000114 42.258968 14.054741 52.894650 0.000121
21 0.000010 0.000038 -0.000114 43.507492 11.254171 53.922272 0.000121
[Rope4_Seg02]
20 139.999985 0.000060 0.000119 -1.371821 3.936810 -2.802327 139.999985
21 139.999985 0.000060 0.000119 -1.553091 3.970861 -3.289333 139.999985
[Rope4_Seg03]
20 139.999924 0.000000 -0.000238 -1.353879 4.849754 -3.125330 139.999924
21 139.999924 0.000000 -0.000238 -1.468681 4.748801 -3.450721 139.999924
[Rope4_Seg04]
20 139.999985 0.000000 0.000119 0.289350 3.493413 2.454983 139.999985
21 139.999985 0.000000 0.000119 0.240305 2.911247 1.991726 139.999985
[Rope4_Seg05]
20 139.999802 -0.000060 -0.000119 -3.059099 10.583387 -13.072647 139.999802
21 139.999802 -0.000060 -0.000119 -4.062713 11.516657 -15.297029 139.999802
[Rope4_Seg06]
20 139.999924 0.000000 0.000060 -5.050358 16.108479 -27.407658 139.999924
21 139.999924 0.000000 0.000060 -5.872380 17.828304 -28.261749 139.999924
[Rope4_Seg07]
20 139.999802 0.000000 0.000000 -0.360933 8.200340 -11.831197 139.999802
21 139.999802 0.000000 0.000000 -0.211325 8.587775 -11.495061 139.999802
[Rope4_Seg08]
20 139.999924 0.000000 0.000119 -1.245206 3.917965 -5.595733 139.999924
21 139.999924 0.000000 0.000119 -1.136625 4.043472 -5.434873 139.999924
[Rope4_Seg09]
20 90.185791 0.000060 0.000060 -135.617828 2.228885 0.850567 90.185791
21 90.185791 0.000060 0.000060 -135.617828 2.228885 0.850567 90.185791
[L_rear_hand01]
20 101.696655 -8.392275 -7.654577 -31.684452 -23.583008 144.025742 102.329041
21 101.696655 -8.392275 -7.654577 -31.684452 -23.583008 144.025742 102.329041
[L_rear_hand02]
20 102.726799 -1.568258 5.773216 82.701553 38.753956 171.553619 102.900848
21 102.726799 -1.568258 5.773216 82.701553 38.753960 171.553619 102.900848
[L_rear_hand03]
20 104.552910 9.721220 -10.420293 -163.975403 -19.004421 -142.009338 105.519653
21 104.552910 9.721220 -10.420293 -163.975403 -19.004421 -142.009338 105.519653
